<?xml version="1.0" encoding="UTF-8" standalone="no"?>
<!-- Generator: Adobe Illustrator 25.2.0, SVG Export Plug-In . SVG Version: 6.00 Build 0)  -->

<svg
   version="1.1"
   id="Layer"
   x="0px"
   y="0px"
   viewBox="0 0 22 22"
   style="enable-background:new 0 0 22 22;"
   xml:space="preserve"
   sodipodi:docname="layout-bsp.svg"
   inkscape:version="1.2.1 (9c6d41e410, 2022-07-14)"
   inkscape:export-filename="../layout-bsp.png"
   inkscape:export-xdpi="96"
   inkscape:export-ydpi="96"
   xmlns:inkscape="http://www.inkscape.org/namespaces/inkscape"
   xmlns:sodipodi="http://sodipodi.sourceforge.net/DTD/sodipodi-0.dtd"
   xmlns="http://www.w3.org/2000/svg"
   xmlns:svg="http://www.w3.org/2000/svg"><defs
   id="defs37" /><sodipodi:namedview
   id="namedview35"
   pagecolor="#ffffff"
   bordercolor="#000000"
   borderopacity="0.25"
   inkscape:showpageshadow="2"
   inkscape:pageopacity="0.0"
   inkscape:pagecheckerboard="0"
   inkscape:deskcolor="#d1d1d1"
   showgrid="false"
   inkscape:zoom="14.045712"
   inkscape:cx="-11.284583"
   inkscape:cy="9.5758763"
   inkscape:window-width="1908"
   inkscape:window-height="2108"
   inkscape:window-x="5764"
   inkscape:window-y="44"
   inkscape:window-maximized="1"
   inkscape:current-layer="g32" />
<style
   type="text/css"
   id="style2">
	.st0{fill:url(#SVGID_1_);}
	.st1{fill:url(#SVGID_2_);}
	.st2{fill:url(#SVGID_3_);}
	.st3{fill:url(#SVGID_4_);}
</style>
<g
   id="g32">
	
		<linearGradient
   id="SVGID_1_"
   gradientUnits="userSpaceOnUse"
   x1="-0.5066"
   y1="-235.2952"
   x2="24.4934"
   y2="-235.2952"
   gradientTransform="matrix(1 0 0 -1 -1.0191 -218.2452)">
		<stop
   offset="0.2"
   style="stop-color:#f38ba8"
   id="stop4" />
		<stop
   offset="0.8"
   style="stop-color:#f5c2e7"
   id="stop6" />
	</linearGradient>
	<path
   class="st0"
   d="m 20.236345,12.230425 h -8.2 c -0.6,0 -1,0.154718 -1,0.386795 v 3.055682 c 0,0.232077 0.4,0.386795 1,0.386795 h 8.2 c 0.6,0 1,-0.154718 1,-0.386795 V 12.61722 c 0,-0.232077 -0.4,-0.386795 -1,-0.386795 z"
   id="path9"
   style="fill:#89dceb;fill-opacity:1;stroke-width:0.621929" /><path
   class="st0"
   d="m 20.376827,17.502512 h -8.2 c -0.6,0 -1,0.154718 -1,0.386795 v 3.055682 c 0,0.232077 0.4,0.386795 1,0.386795 h 8.2 c 0.6,0 1,-0.154718 1,-0.386795 v -3.055682 c 0,-0.232077 -0.4,-0.386795 -1,-0.386795 z"
   id="path9-3"
   style="fill:#fae3b0;fill-opacity:1;stroke-width:0.621929" />
	
		<linearGradient
   id="SVGID_2_"
   gradientUnits="userSpaceOnUse"
   x1="-0.5066"
   y1="-235.1952"
   x2="24.4934"
   y2="-235.1952"
   gradientTransform="matrix(1 0 0 -1 -1.0191 -218.2452)">
		<stop
   offset="0.2"
   style="stop-color:#f38ba8"
   id="stop11" />
		<stop
   offset="0.8"
   style="stop-color:#f5c2e7"
   id="stop13" />
	</linearGradient>
	<path
   class="st1"
   d="m 9.3231136,11.82606 h -8.1 c -0.60000002,0 -1.00000002,0.4 -1.00000002,1 v 7.9 c 0,0.6 0.4,1 1.00000002,1 h 8.1 c 0.6,0 1.0000004,-0.4 1.0000004,-1 v -7.9 c 0,-0.6 -0.5000004,-1 -1.0000004,-1 z"
   id="path16"
   style="fill:#f38ba8;fill-opacity:1" />
	
		<linearGradient
   id="SVGID_3_"
   gradientUnits="userSpaceOnUse"
   x1="-0.5066"
   y1="-223.2952"
   x2="24.4934"
   y2="-223.2952"
   gradientTransform="matrix(1 0 0 -1 -1.0191 -218.2452)">
		<stop
   offset="0.2"
   style="stop-color:#f38ba8"
   id="stop18" />
		<stop
   offset="0.8"
   style="stop-color:#f5c2e7"
   id="stop20" />
	</linearGradient>
	<path
   class="st2"
   d="M 20.349138,0.1 H 6.8120686 c -0.9905173,0 -1.6508621,0.4 -1.6508621,1 V 9 c 0,0.6 0.6603448,1 1.6508621,1 H 20.349138 C 21.339655,10 22,9.6 22,9 V 1.1 c 0,-0.6 -0.660345,-1 -1.650862,-1 z"
   id="path23"
   style="fill:#a6e3a1;fill-opacity:1;stroke-width:1.28486" />
	
		<linearGradient
   id="SVGID_4_"
   gradientUnits="userSpaceOnUse"
   x1="-0.5066"
   y1="-223.1952"
   x2="24.4934"
   y2="-223.1952"
   gradientTransform="matrix(1 0 0 -1 -1.0191 -218.2452)">
		<stop
   offset="0.2"
   style="stop-color:#f38ba8"
   id="stop25" />
		<stop
   offset="0.8"
   style="stop-color:#f5c2e7"
   id="stop27" />
	</linearGradient>
	<path
   class="st3"
   d="M 4.1820122,0 H 0.45956178 C 0.18382471,0 0,0.4 0,1 v 7.9 c 0,0.6 0.18382471,1 0.45956178,1 H 4.1820122 c 0.275737,0 0.4595617,-0.4 0.4595617,-1 V 1 c 0,-0.6 -0.2297809,-1 -0.4595617,-1 z"
   id="path30"
   style="fill:#cba6f7;fill-opacity:1;stroke-width:0.67791" />
</g>
</svg>
